<svg xmlns="http://www.w3.org/2000/svg" xmlns:xlink="http://www.w3.org/1999/xlink" width="512" zoomAndPan="magnify" viewBox="0 0 384 383.999986" height="512" preserveAspectRatio="xMidYMid meet" version="1.0"><defs><g/><clipPath id="3190166050"><path d="M 192 0 C 85.960938 0 0 85.960938 0 192 C 0 298.039062 85.960938 384 192 384 C 298.039062 384 384 298.039062 384 192 C 384 85.960938 298.039062 0 192 0 Z M 192 0 " clip-rule="nonzero"/></clipPath><clipPath id="c5bdc578c9"><path d="M 0 0 L 384 0 L 384 384 L 0 384 Z M 0 0 " clip-rule="nonzero"/></clipPath><clipPath id="e04b600de4"><path d="M 192 0 C 85.960938 0 0 85.960938 0 192 C 0 298.039062 85.960938 384 192 384 C 298.039062 384 384 298.039062 384 192 C 384 85.960938 298.039062 0 192 0 Z M 192 0 " clip-rule="nonzero"/></clipPath><clipPath id="0c9cf082c5"><rect x="0" width="384" y="0" height="384"/></clipPath><clipPath id="942b123390"><rect x="0" width="214" y="0" height="256"/></clipPath></defs><g clip-path="url(#3190166050)"><g><g clip-path="url(#0c9cf082c5)"><g clip-path="url(#c5bdc578c9)"><g clip-path="url(#e04b600de4)"><rect x="-84.48" width="552.96" fill="#222222" height="552.959979" y="-84.479997" fill-opacity="1"/></g></g></g></g></g><g transform="matrix(1, 0, 0, 1, 85, 64)"><g clip-path="url(#942b123390)"><g fill="#758eea" fill-opacity="1"><g transform="translate(0.833111, 203.362232)"><g><path d="M 210.265625 0 L 141.21875 0 L 141.21875 -57.640625 L 124.421875 0 L 87.921875 0 L 71.125 -57.640625 L 71.125 0 L 2.078125 0 L 2.078125 -45.828125 L 14.09375 -45.828125 L 14.09375 -107.828125 L 2.078125 -107.828125 L 2.078125 -151.375 L 87.71875 -151.375 L 106.171875 -97.453125 L 124.625 -151.375 L 210.265625 -151.375 L 210.265625 -107.828125 L 198.234375 -107.828125 L 198.234375 -45.828125 L 210.265625 -45.828125 Z M 210.265625 0 "/></g></g></g></g></g></svg>