<svg xmlns="http://www.w3.org/2000/svg" xmlns:xlink="http://www.w3.org/1999/xlink" width="500" zoomAndPan="magnify" viewBox="0 0 375 374.999991" height="500" preserveAspectRatio="xMidYMid meet" version="1.0"><defs><clipPath id="9b1ee511eb"><path d="M 53.253906 30.347656 L 225.824219 30.347656 L 225.824219 181.125 L 53.253906 181.125 Z M 53.253906 30.347656 " clip-rule="nonzero"/></clipPath><clipPath id="e39195b65a"><path d="M 139.414062 30.347656 L 225.574219 181.125 L 53.253906 181.125 Z M 139.414062 30.347656 " clip-rule="nonzero"/></clipPath><clipPath id="c3da68c06d"><path d="M 0.253906 0.347656 L 172.601562 0.347656 L 172.601562 151.125 L 0.253906 151.125 Z M 0.253906 0.347656 " clip-rule="nonzero"/></clipPath><clipPath id="24a04937c3"><path d="M 86.414062 0.347656 L 172.574219 151.125 L 0.253906 151.125 Z M 86.414062 0.347656 " clip-rule="nonzero"/></clipPath><clipPath id="7c206ec155"><rect x="0" width="173" y="0" height="152"/></clipPath><clipPath id="340b0cfa09"><path d="M 53.253906 30.347656 L 225.566406 30.347656 L 225.566406 181.097656 L 53.253906 181.097656 Z M 53.253906 30.347656 " clip-rule="nonzero"/></clipPath><clipPath id="d1ae30c04c"><path d="M 139.410156 30.347656 L 225.566406 181.121094 L 53.253906 181.121094 Z M 139.410156 30.347656 " clip-rule="nonzero"/></clipPath><clipPath id="03bc12a4cc"><path d="M 149.425781 30.347656 L 321.996094 30.347656 L 321.996094 181.125 L 149.425781 181.125 Z M 149.425781 30.347656 " clip-rule="nonzero"/></clipPath><clipPath id="10d358abed"><path d="M 235.585938 30.347656 L 321.746094 181.125 L 149.425781 181.125 Z M 235.585938 30.347656 " clip-rule="nonzero"/></clipPath><clipPath id="0d26522b5e"><path d="M 0.425781 0.347656 L 172.839844 0.347656 L 172.839844 151.125 L 0.425781 151.125 Z M 0.425781 0.347656 " clip-rule="nonzero"/></clipPath><clipPath id="fc02457704"><path d="M 86.585938 0.347656 L 172.746094 151.125 L 0.425781 151.125 Z M 86.585938 0.347656 " clip-rule="nonzero"/></clipPath><clipPath id="18cd9c8d98"><rect x="0" width="173" y="0" height="152"/></clipPath><clipPath id="d855e335bb"><path d="M 149.425781 30.347656 L 321.738281 30.347656 L 321.738281 181.097656 L 149.425781 181.097656 Z M 149.425781 30.347656 " clip-rule="nonzero"/></clipPath><clipPath id="37dc7037b2"><path d="M 235.582031 30.347656 L 321.738281 181.121094 L 149.425781 181.121094 Z M 235.582031 30.347656 " clip-rule="nonzero"/></clipPath><clipPath id="7342c4af37"><path d="M 149.175781 193.871094 L 321.742188 193.871094 L 321.742188 344.648438 L 149.175781 344.648438 Z M 149.175781 193.871094 " clip-rule="nonzero"/></clipPath><clipPath id="af048b70e3"><path d="M 235.585938 344.648438 L 149.425781 193.871094 L 321.742188 193.871094 Z M 235.585938 344.648438 " clip-rule="nonzero"/></clipPath><clipPath id="85c0ca3aa7"><path d="M 0.28125 0.871094 L 172.742188 0.871094 L 172.742188 151.648438 L 0.28125 151.648438 Z M 0.28125 0.871094 " clip-rule="nonzero"/></clipPath><clipPath id="884e28326c"><path d="M 86.585938 151.648438 L 0.425781 0.871094 L 172.742188 0.871094 Z M 86.585938 151.648438 " clip-rule="nonzero"/></clipPath><clipPath id="9602523c47"><rect x="0" width="173" y="0" height="152"/></clipPath><clipPath id="9580a56257"><path d="M 149.429688 193.898438 L 321.742188 193.898438 L 321.742188 344.648438 L 149.429688 344.648438 Z M 149.429688 193.898438 " clip-rule="nonzero"/></clipPath><clipPath id="d4e290e03c"><path d="M 235.585938 344.648438 L 149.429688 193.875 L 321.742188 193.875 Z M 235.585938 344.648438 " clip-rule="nonzero"/></clipPath><clipPath id="ce612c4b4b"><path d="M 53.003906 193.871094 L 225.574219 193.871094 L 225.574219 344.648438 L 53.003906 344.648438 Z M 53.003906 193.871094 " clip-rule="nonzero"/></clipPath><clipPath id="0adcc989d0"><path d="M 139.414062 344.648438 L 53.253906 193.871094 L 225.574219 193.871094 Z M 139.414062 344.648438 " clip-rule="nonzero"/></clipPath><clipPath id="af108c895a"><path d="M 0.0390625 0.871094 L 172.574219 0.871094 L 172.574219 151.648438 L 0.0390625 151.648438 Z M 0.0390625 0.871094 " clip-rule="nonzero"/></clipPath><clipPath id="46990453f3"><path d="M 86.414062 151.648438 L 0.253906 0.871094 L 172.574219 0.871094 Z M 86.414062 151.648438 " clip-rule="nonzero"/></clipPath><clipPath id="f97f13457f"><rect x="0" width="173" y="0" height="152"/></clipPath><clipPath id="2ca9f515e4"><path d="M 53.261719 193.898438 L 225.574219 193.898438 L 225.574219 344.648438 L 53.261719 344.648438 Z M 53.261719 193.898438 " clip-rule="nonzero"/></clipPath><clipPath id="9578b7cfba"><path d="M 139.417969 344.648438 L 53.261719 193.875 L 225.574219 193.875 Z M 139.417969 344.648438 " clip-rule="nonzero"/></clipPath></defs><g clip-path="url(#9b1ee511eb)"><g clip-path="url(#e39195b65a)"><g transform="matrix(1, 0, 0, 1, 53, 30)"><g clip-path="url(#7c206ec155)"><g clip-path="url(#c3da68c06d)"><g clip-path="url(#24a04937c3)"><path fill="#ffffff" d="M 0.253906 0.347656 L 172.824219 0.347656 L 172.824219 151.125 L 0.253906 151.125 Z M 0.253906 0.347656 " fill-opacity="1" fill-rule="nonzero"/></g></g></g></g></g></g><g clip-path="url(#340b0cfa09)"><g clip-path="url(#d1ae30c04c)"><path stroke-linecap="butt" transform="matrix(0.75, 0, 0, 0.75, 53.255598, 30.345798)" fill="none" stroke-linejoin="miter" d="M 114.872752 0.00247744 L 229.74776 201.033741 L -0.0022554 201.033741 Z M 114.872752 0.00247744 " stroke="#ffffff" stroke-width="64" stroke-opacity="1" stroke-miterlimit="4"/></g></g><g clip-path="url(#03bc12a4cc)"><g clip-path="url(#10d358abed)"><g transform="matrix(1, 0, 0, 1, 149, 30)"><g clip-path="url(#18cd9c8d98)"><g clip-path="url(#0d26522b5e)"><g clip-path="url(#fc02457704)"><path fill="#ffffff" d="M 0.425781 0.347656 L 172.996094 0.347656 L 172.996094 151.125 L 0.425781 151.125 Z M 0.425781 0.347656 " fill-opacity="1" fill-rule="nonzero"/></g></g></g></g></g></g><g clip-path="url(#d855e335bb)"><g clip-path="url(#37dc7037b2)"><path stroke-linecap="butt" transform="matrix(0.75, 0, 0, 0.75, 149.426932, 30.345798)" fill="none" stroke-linejoin="miter" d="M 114.873473 0.00247744 L 229.74848 201.033741 L -0.00153472 201.033741 Z M 114.873473 0.00247744 " stroke="#ffffff" stroke-width="64" stroke-opacity="1" stroke-miterlimit="4"/></g></g><g clip-path="url(#7342c4af37)"><g clip-path="url(#af048b70e3)"><g transform="matrix(1, 0, 0, 1, 149, 193)"><g clip-path="url(#9602523c47)"><g clip-path="url(#85c0ca3aa7)"><g clip-path="url(#884e28326c)"><path fill="#ffffff" d="M 172.742188 151.648438 L 0.175781 151.648438 L 0.175781 0.871094 L 172.742188 0.871094 Z M 172.742188 151.648438 " fill-opacity="1" fill-rule="nonzero"/></g></g></g></g></g></g><g clip-path="url(#9580a56257)"><g clip-path="url(#d4e290e03c)"><path stroke-linecap="butt" transform="matrix(-0.75, 0, 0, -0.75, 321.743861, 344.649822)" fill="none" stroke-linejoin="miter" d="M 114.877239 0.00184622 L 229.752246 201.033109 L 0.0022313 201.033109 Z M 114.877239 0.00184622 " stroke="#ffffff" stroke-width="64" stroke-opacity="1" stroke-miterlimit="4"/></g></g><g clip-path="url(#ce612c4b4b)"><g clip-path="url(#0adcc989d0)"><g transform="matrix(1, 0, 0, 1, 53, 193)"><g clip-path="url(#f97f13457f)"><g clip-path="url(#af108c895a)"><g clip-path="url(#46990453f3)"><path fill="#ffffff" d="M 172.574219 151.648438 L 0.00390625 151.648438 L 0.00390625 0.871094 L 172.574219 0.871094 Z M 172.574219 151.648438 " fill-opacity="1" fill-rule="nonzero"/></g></g></g></g></g></g><g clip-path="url(#2ca9f515e4)"><g clip-path="url(#9578b7cfba)"><path stroke-linecap="butt" transform="matrix(-0.75, 0, 0, -0.75, 225.57251, 344.649822)" fill="none" stroke-linejoin="miter" d="M 114.872729 0.00184622 L 229.747736 201.033109 L -0.00227875 201.033109 Z M 114.872729 0.00184622 " stroke="#ffffff" stroke-width="64" stroke-opacity="1" stroke-miterlimit="4"/></g></g></svg>