<svg xmlns="http://www.w3.org/2000/svg" xmlns:xlink="http://www.w3.org/1999/xlink" width="500" zoomAndPan="magnify" viewBox="0 0 375 374.999991" height="500" preserveAspectRatio="xMidYMid meet" version="1.0"><defs><clipPath id="f65b5b11c6"><path d="M 53.253906 30.347656 L 225.566406 30.347656 L 225.566406 181.097656 L 53.253906 181.097656 Z M 53.253906 30.347656 " clip-rule="nonzero"/></clipPath><clipPath id="b036589b88"><path d="M 139.410156 30.347656 L 225.566406 181.121094 L 53.253906 181.121094 Z M 139.410156 30.347656 " clip-rule="nonzero"/></clipPath><clipPath id="964a1d2344"><path d="M 149.425781 30.347656 L 321.738281 30.347656 L 321.738281 181.097656 L 149.425781 181.097656 Z M 149.425781 30.347656 " clip-rule="nonzero"/></clipPath><clipPath id="a8df6ef355"><path d="M 235.582031 30.347656 L 321.738281 181.121094 L 149.425781 181.121094 Z M 235.582031 30.347656 " clip-rule="nonzero"/></clipPath><clipPath id="649e52351c"><path d="M 149.429688 193.898438 L 321.742188 193.898438 L 321.742188 344.648438 L 149.429688 344.648438 Z M 149.429688 193.898438 " clip-rule="nonzero"/></clipPath><clipPath id="cda9f017ce"><path d="M 235.585938 344.648438 L 149.429688 193.875 L 321.742188 193.875 Z M 235.585938 344.648438 " clip-rule="nonzero"/></clipPath><clipPath id="ba68772121"><path d="M 53.261719 193.898438 L 225.574219 193.898438 L 225.574219 344.648438 L 53.261719 344.648438 Z M 53.261719 193.898438 " clip-rule="nonzero"/></clipPath><clipPath id="9758760991"><path d="M 139.417969 344.648438 L 53.261719 193.875 L 225.574219 193.875 Z M 139.417969 344.648438 " clip-rule="nonzero"/></clipPath></defs><g clip-path="url(#f65b5b11c6)"><g clip-path="url(#b036589b88)"><path stroke-linecap="butt" transform="matrix(0.75, 0, 0, 0.75, 53.255598, 30.345798)" fill="none" stroke-linejoin="miter" d="M 114.872752 0.00247744 L 229.74776 201.033741 L -0.0022554 201.033741 Z M 114.872752 0.00247744 " stroke="#ffffff" stroke-width="64" stroke-opacity="1" stroke-miterlimit="4"/></g></g><g clip-path="url(#964a1d2344)"><g clip-path="url(#a8df6ef355)"><path stroke-linecap="butt" transform="matrix(0.75, 0, 0, 0.75, 149.426932, 30.345798)" fill="none" stroke-linejoin="miter" d="M 114.873473 0.00247744 L 229.74848 201.033741 L -0.00153472 201.033741 Z M 114.873473 0.00247744 " stroke="#ffffff" stroke-width="64" stroke-opacity="1" stroke-miterlimit="4"/></g></g><g clip-path="url(#649e52351c)"><g clip-path="url(#cda9f017ce)"><path stroke-linecap="butt" transform="matrix(-0.75, 0, 0, -0.75, 321.743861, 344.649822)" fill="none" stroke-linejoin="miter" d="M 114.877239 0.00184622 L 229.752246 201.033109 L 0.0022313 201.033109 Z M 114.877239 0.00184622 " stroke="#ffffff" stroke-width="64" stroke-opacity="1" stroke-miterlimit="4"/></g></g><g clip-path="url(#ba68772121)"><g clip-path="url(#9758760991)"><path stroke-linecap="butt" transform="matrix(-0.75, 0, 0, -0.75, 225.57251, 344.649822)" fill="none" stroke-linejoin="miter" d="M 114.872729 0.00184622 L 229.747736 201.033109 L -0.00227875 201.033109 Z M 114.872729 0.00184622 " stroke="#ffffff" stroke-width="64" stroke-opacity="1" stroke-miterlimit="4"/></g></g></svg>