<svg xmlns="http://www.w3.org/2000/svg" xmlns:xlink="http://www.w3.org/1999/xlink" width="500" zoomAndPan="magnify" viewBox="0 0 375 374.999991" height="500" preserveAspectRatio="xMidYMid meet" version="1.0"><defs><clipPath id="a0f70121c6"><path d="M 187.5 0 C 83.945312 0 0 83.945312 0 187.5 C 0 291.054688 83.945312 375 187.5 375 C 291.054688 375 375 291.054688 375 187.5 C 375 83.945312 291.054688 0 187.5 0 Z M 187.5 0 " clip-rule="nonzero"/></clipPath><clipPath id="2adfbde81e"><path d="M 0 0 L 375 0 L 375 375 L 0 375 Z M 0 0 " clip-rule="nonzero"/></clipPath><clipPath id="86f1594984"><path d="M 187.5 0 C 83.945312 0 0 83.945312 0 187.5 C 0 291.054688 83.945312 375 187.5 375 C 291.054688 375 375 291.054688 375 187.5 C 375 83.945312 291.054688 0 187.5 0 Z M 187.5 0 " clip-rule="nonzero"/></clipPath><clipPath id="260e4b64a2"><rect x="0" width="375" y="0" height="375"/></clipPath><clipPath id="ef8c788429"><path d="M 97.832031 82.53125 L 213 82.53125 L 213 183.242188 L 97.832031 183.242188 Z M 97.832031 82.53125 " clip-rule="nonzero"/></clipPath><clipPath id="6c4496212e"><path d="M 155.382812 82.53125 L 212.929688 183.242188 L 97.832031 183.242188 Z M 155.382812 82.53125 " clip-rule="nonzero"/></clipPath><clipPath id="b4cb6e2c19"><path d="M 0.832031 0.53125 L 116 0.53125 L 116 101.242188 L 0.832031 101.242188 Z M 0.832031 0.53125 " clip-rule="nonzero"/></clipPath><clipPath id="c529525432"><path d="M 58.382812 0.53125 L 115.929688 101.242188 L 0.832031 101.242188 Z M 58.382812 0.53125 " clip-rule="nonzero"/></clipPath><clipPath id="f92f98bbe9"><rect x="0" width="116" y="0" height="102"/></clipPath><clipPath id="ba7cfef178"><path d="M 97.832031 82.53125 L 212.925781 82.53125 L 212.925781 183.222656 L 97.832031 183.222656 Z M 97.832031 82.53125 " clip-rule="nonzero"/></clipPath><clipPath id="c84a00b0cb"><path d="M 155.378906 82.53125 L 212.925781 183.238281 L 97.832031 183.238281 Z M 155.378906 82.53125 " clip-rule="nonzero"/></clipPath><clipPath id="8e60d8567b"><path d="M 162.070312 82.53125 L 277.335938 82.53125 L 277.335938 183.242188 L 162.070312 183.242188 Z M 162.070312 82.53125 " clip-rule="nonzero"/></clipPath><clipPath id="da2e520d9e"><path d="M 219.617188 82.53125 L 277.167969 183.242188 L 162.070312 183.242188 Z M 219.617188 82.53125 " clip-rule="nonzero"/></clipPath><clipPath id="1b0a628ac7"><path d="M 0.0703125 0.53125 L 115.199219 0.53125 L 115.199219 101.242188 L 0.0703125 101.242188 Z M 0.0703125 0.53125 " clip-rule="nonzero"/></clipPath><clipPath id="61bebca4ad"><path d="M 57.617188 0.53125 L 115.167969 101.242188 L 0.0703125 101.242188 Z M 57.617188 0.53125 " clip-rule="nonzero"/></clipPath><clipPath id="c0f46f091b"><rect x="0" width="116" y="0" height="102"/></clipPath><clipPath id="ce74439d42"><path d="M 162.070312 82.53125 L 277.164062 82.53125 L 277.164062 183.222656 L 162.070312 183.222656 Z M 162.070312 82.53125 " clip-rule="nonzero"/></clipPath><clipPath id="d780651ad9"><path d="M 219.617188 82.53125 L 277.164062 183.238281 L 162.070312 183.238281 Z M 219.617188 82.53125 " clip-rule="nonzero"/></clipPath><clipPath id="75c84d9d9a"><rect x="0" width="375" y="0" height="281"/></clipPath><clipPath id="c4559c71b8"><path d="M 162 97.75 L 277.164062 97.75 L 277.164062 198.457031 L 162 198.457031 Z M 162 97.75 " clip-rule="nonzero"/></clipPath><clipPath id="e5139d6ecc"><path d="M 219.617188 198.457031 L 162.070312 97.75 L 277.164062 97.75 Z M 219.617188 198.457031 " clip-rule="nonzero"/></clipPath><clipPath id="f1a1ef16f4"><path d="M 0 0.75 L 115.164062 0.75 L 115.164062 101.457031 L 0 101.457031 Z M 0 0.75 " clip-rule="nonzero"/></clipPath><clipPath id="3bcd125950"><path d="M 57.617188 101.457031 L 0.0703125 0.75 L 115.164062 0.75 Z M 57.617188 101.457031 " clip-rule="nonzero"/></clipPath><clipPath id="edc176ea29"><rect x="0" width="116" y="0" height="102"/></clipPath><clipPath id="f7b86a7bb9"><path d="M 162.074219 97.765625 L 277.164062 97.765625 L 277.164062 198.457031 L 162.074219 198.457031 Z M 162.074219 97.765625 " clip-rule="nonzero"/></clipPath><clipPath id="29b7f8180d"><path d="M 219.621094 198.457031 L 162.074219 97.75 L 277.164062 97.75 Z M 219.621094 198.457031 " clip-rule="nonzero"/></clipPath><clipPath id="77c370b12d"><path d="M 97.664062 97.75 L 212.929688 97.75 L 212.929688 198.457031 L 97.664062 198.457031 Z M 97.664062 97.75 " clip-rule="nonzero"/></clipPath><clipPath id="316df80130"><path d="M 155.382812 198.457031 L 97.832031 97.75 L 212.929688 97.75 Z M 155.382812 198.457031 " clip-rule="nonzero"/></clipPath><clipPath id="0223a10272"><path d="M 0.679688 0.75 L 115.929688 0.75 L 115.929688 101.457031 L 0.679688 101.457031 Z M 0.679688 0.75 " clip-rule="nonzero"/></clipPath><clipPath id="e10afedb7e"><path d="M 58.382812 101.457031 L 0.832031 0.75 L 115.929688 0.75 Z M 58.382812 101.457031 " clip-rule="nonzero"/></clipPath><clipPath id="b58d572725"><rect x="0" width="116" y="0" height="102"/></clipPath><clipPath id="758e76af1e"><path d="M 97.835938 97.765625 L 212.929688 97.765625 L 212.929688 198.457031 L 97.835938 198.457031 Z M 97.835938 97.765625 " clip-rule="nonzero"/></clipPath><clipPath id="7379a45c2e"><path d="M 155.382812 198.457031 L 97.835938 97.75 L 212.929688 97.75 Z M 155.382812 198.457031 " clip-rule="nonzero"/></clipPath><clipPath id="8e4986c407"><rect x="0" width="375" y="0" height="281"/></clipPath></defs><g clip-path="url(#a0f70121c6)"><g transform="matrix(1, 0, 0, 1, 0, 0)"><g clip-path="url(#260e4b64a2)"><g clip-path="url(#2adfbde81e)"><g clip-path="url(#86f1594984)"><rect x="-82.5" width="540" fill="#5170ff" height="539.999987" y="-82.499998" fill-opacity="1"/></g></g></g></g></g><g><g clip-path="url(#75c84d9d9a)"><g clip-path="url(#ef8c788429)"><g clip-path="url(#6c4496212e)"><g transform="matrix(1, 0, 0, 1, 97, 82)"><g clip-path="url(#f92f98bbe9)"><g clip-path="url(#b4cb6e2c19)"><g clip-path="url(#c529525432)"><path fill="#ffffff" d="M 0.832031 0.53125 L 116.097656 0.53125 L 116.097656 101.242188 L 0.832031 101.242188 Z M 0.832031 0.53125 " fill-opacity="1" fill-rule="nonzero"/></g></g></g></g></g></g><g clip-path="url(#ba7cfef178)"><g clip-path="url(#c84a00b0cb)"><path stroke-linecap="butt" transform="matrix(0.500949, 0, 0, 0.500949, 97.833917, 82.53173)" fill="none" stroke-linejoin="miter" d="M 114.87203 -0.000957744 L 229.747825 201.031683 L -0.00376491 201.031683 Z M 114.87203 -0.000957744 " stroke="#ffffff" stroke-width="95.818192" stroke-opacity="1" stroke-miterlimit="4"/></g></g><g clip-path="url(#8e60d8567b)"><g clip-path="url(#da2e520d9e)"><g transform="matrix(1, 0, 0, 1, 162, 82)"><g clip-path="url(#c0f46f091b)"><g clip-path="url(#1b0a628ac7)"><g clip-path="url(#61bebca4ad)"><path fill="#ffffff" d="M 0.0703125 0.53125 L 115.335938 0.53125 L 115.335938 101.242188 L 0.0703125 101.242188 Z M 0.0703125 0.53125 " fill-opacity="1" fill-rule="nonzero"/></g></g></g></g></g></g><g clip-path="url(#ce74439d42)"><g clip-path="url(#d780651ad9)"><path stroke-linecap="butt" transform="matrix(0.500949, 0, 0, 0.500949, 162.069779, 82.53173)" fill="none" stroke-linejoin="miter" d="M 114.876861 -0.000957744 L 229.752656 201.031683 L 0.00106566 201.031683 Z M 114.876861 -0.000957744 " stroke="#ffffff" stroke-width="95.818192" stroke-opacity="1" stroke-miterlimit="4"/></g></g></g></g><g transform="matrix(1, 0, 0, 1, 0, 94)"><g clip-path="url(#8e4986c407)"><g clip-path="url(#c4559c71b8)"><g clip-path="url(#e5139d6ecc)"><g transform="matrix(1, 0, 0, 1, 162, 97)"><g clip-path="url(#edc176ea29)"><g clip-path="url(#f1a1ef16f4)"><g clip-path="url(#3bcd125950)"><path fill="#ffffff" d="M 115.164062 101.457031 L -0.0976562 101.457031 L -0.0976562 0.75 L 115.164062 0.75 Z M 115.164062 101.457031 " fill-opacity="1" fill-rule="nonzero"/></g></g></g></g></g></g><g clip-path="url(#f7b86a7bb9)"><g clip-path="url(#29b7f8180d)"><path stroke-linecap="butt" transform="matrix(-0.500949, 0, 0, -0.500949, 277.165942, 198.458204)" fill="none" stroke-linejoin="miter" d="M 114.87175 0.00234105 L 229.747545 201.034982 L 0.00375248 201.034982 Z M 114.87175 0.00234105 " stroke="#ffffff" stroke-width="95.818192" stroke-opacity="1" stroke-miterlimit="4"/></g></g><g clip-path="url(#77c370b12d)"><g clip-path="url(#316df80130)"><g transform="matrix(1, 0, 0, 1, 97, 97)"><g clip-path="url(#b58d572725)"><g clip-path="url(#0223a10272)"><g clip-path="url(#e10afedb7e)"><path fill="#ffffff" d="M 115.929688 101.457031 L 0.664062 101.457031 L 0.664062 0.75 L 115.929688 0.75 Z M 115.929688 101.457031 " fill-opacity="1" fill-rule="nonzero"/></g></g></g></g></g></g><g clip-path="url(#758e76af1e)"><g clip-path="url(#7379a45c2e)"><path stroke-linecap="butt" transform="matrix(-0.500949, 0, 0, -0.500949, 212.930074, 198.458204)" fill="none" stroke-linejoin="miter" d="M 114.876566 0.00234105 L 229.752361 201.034982 L 0.000770972 201.034982 Z M 114.876566 0.00234105 " stroke="#ffffff" stroke-width="95.818192" stroke-opacity="1" stroke-miterlimit="4"/></g></g></g></g></svg>