<svg xmlns="http://www.w3.org/2000/svg" xmlns:xlink="http://www.w3.org/1999/xlink" width="500" zoomAndPan="magnify" viewBox="0 0 375 374.999991" height="500" preserveAspectRatio="xMidYMid meet" version="1.0"><defs><clipPath id="73749ffe60"><path d="M 194 0 L 357.75 0 L 357.75 375 L 194 375 Z M 194 0 " clip-rule="nonzero"/></clipPath><clipPath id="ba19cc8e87"><path d="M 17.25 0 L 303.90625 0 L 303.90625 375 L 17.25 375 Z M 17.25 0 " clip-rule="nonzero"/></clipPath></defs><g clip-path="url(#73749ffe60)"><path fill="#ffffff" d="M 357.515625 0 L 357.515625 375 L 194.761719 212.234375 L 224.113281 182.886719 L 316.042969 274.84375 L 316.042969 41.484375 Z M 357.515625 0 " fill-opacity="1" fill-rule="nonzero"/></g><g clip-path="url(#ba19cc8e87)"><path fill="#ffffff" d="M 303.140625 72.015625 L 303.140625 232.980469 L 261.652344 191.488281 L 261.652344 130.679688 L 17.371094 375 L 17.371094 0 L 58.859375 41.484375 L 58.859375 274.84375 L 261.660156 72.015625 Z M 303.140625 72.015625 " fill-opacity="1" fill-rule="nonzero"/></g><path fill="#ffffff" d="M 180.136719 138.90625 L 150.78125 168.226562 L 113.234375 130.679688 L 113.234375 191.488281 L 71.746094 232.980469 L 71.746094 72.015625 L 113.234375 72.015625 Z M 180.136719 138.90625 " fill-opacity="1" fill-rule="nonzero"/><path fill="#ffffff" d="M 177.484375 136.269531 L 237.648438 196.433594 L 208.320312 225.761719 L 148.15625 165.59375 Z M 177.484375 136.269531 " fill-opacity="1" fill-rule="nonzero"/></svg>